<svg width="24" height="25" viewBox="0 0 24 25" fill="none" xmlns="http://www.w3.org/2000/svg">
<path fill-rule="evenodd" clip-rule="evenodd" d="M4.75541 10.5591C5.82748 6.55814 9.94 4.18377 13.941 5.25584C15.262 5.60979 16.4038 6.29398 17.3036 7.19552L19.2067 9.09859H16.023C15.6088 9.09859 15.273 9.43438 15.273 9.84859C15.273 10.2628 15.6088 10.5986 16.023 10.5986H21.0156C21.2145 10.5986 21.4053 10.5196 21.546 10.3789C21.6866 10.2382 21.7656 10.0474 21.7656 9.84849V4.85599C21.7656 4.44178 21.4298 4.10599 21.0156 4.10599C20.6014 4.10599 20.2656 4.44178 20.2656 4.85599V8.03616L18.3653 6.13586C17.2841 5.05278 15.9116 4.23095 14.3292 3.80695C9.52803 2.52047 4.593 5.36971 3.30653 10.1709C3.19932 10.571 3.43676 10.9823 3.83686 11.0895C4.23696 11.1967 4.64821 10.9592 4.75541 10.5591ZM20.1629 13.9111C19.7628 13.8039 19.3515 14.0413 19.2443 14.4414C18.1722 18.4424 14.0597 20.8168 10.0587 19.7447C8.73774 19.3908 7.59594 18.7066 6.69609 17.8051L4.7942 15.9019H7.97702C8.39123 15.9019 8.72702 15.5661 8.72702 15.1519C8.72702 14.7377 8.39123 14.4019 7.97702 14.4019L2.98438 14.4019C2.57016 14.4019 2.23438 14.7377 2.23438 15.1519V20.1446C2.23438 20.5588 2.57016 20.8946 2.98438 20.8946C3.39859 20.8946 3.73438 20.5588 3.73438 20.1446V16.9634L5.63444 18.8647C6.71564 19.9479 8.08796 20.7696 9.67048 21.1936C14.4717 22.4801 19.4067 19.6308 20.6932 14.8297C20.8004 14.4296 20.563 14.0183 20.1629 13.9111Z" fill="#1A56DB"/>
</svg>
