<svg width="25" height="25" viewBox="0 0 25 25" fill="none" xmlns="http://www.w3.org/2000/svg">
<path fill-rule="evenodd" clip-rule="evenodd" d="M12.5 5.75C13.7131 5.75 14.9153 5.7957 16.1052 5.88545C17.7196 6.00723 18.9928 7.28038 19.1146 8.89481C19.1586 9.47827 19.192 10.0647 19.2146 10.6539L17.5303 8.96967C17.2374 8.67678 16.7626 8.67678 16.4697 8.96967C16.1768 9.26256 16.1768 9.73744 16.4697 10.0303L19.4697 13.0303C19.7626 13.3232 20.2374 13.3232 20.5303 13.0303L23.5303 10.0303C23.8232 9.73744 23.8232 9.26256 23.5303 8.96967C23.2374 8.67678 22.7626 8.67678 22.4697 8.96967L20.7181 10.7212C20.6948 10.0715 20.6588 9.42503 20.6103 8.78199C20.4327 6.42812 18.5719 4.56725 16.218 4.3897C14.9907 4.29712 13.7508 4.25 12.5 4.25C11.2492 4.25 10.0093 4.29712 8.78199 4.3897C6.42812 4.56725 4.56725 6.42812 4.3897 8.78199C4.37284 9.00552 4.35748 9.22948 4.34365 9.45384C4.31815 9.86727 4.63264 10.2231 5.04606 10.2486C5.45949 10.2741 5.81531 9.95959 5.8408 9.54616C5.85422 9.32864 5.8691 9.11152 5.88545 8.89481C6.00723 7.28038 7.28038 6.00723 8.89481 5.88545C10.0847 5.7957 11.2869 5.75 12.5 5.75ZM5.53033 11.9697C5.23744 11.6768 4.76256 11.6768 4.46967 11.9697L1.46967 14.9697C1.17678 15.2626 1.17678 15.7374 1.46967 16.0303C1.76256 16.3232 2.23744 16.3232 2.53033 16.0303L4.28186 14.2788C4.30517 14.9285 4.34119 15.575 4.3897 16.218C4.56725 18.5719 6.42812 20.4327 8.78199 20.6103C10.0093 20.7029 11.2492 20.75 12.5 20.75C13.7508 20.75 14.9907 20.7029 16.218 20.6103C18.5719 20.4327 20.4327 18.5719 20.6103 16.218C20.6272 15.9945 20.6425 15.7705 20.6564 15.5462C20.6818 15.1327 20.3674 14.7769 19.9539 14.7514C19.5405 14.7259 19.1847 15.0404 19.1592 15.4538C19.1458 15.6714 19.1309 15.8885 19.1146 16.1052C18.9928 17.7196 17.7196 18.9928 16.1052 19.1146C14.9153 19.2043 13.7131 19.25 12.5 19.25C11.2869 19.25 10.0847 19.2043 8.89481 19.1146C7.28038 18.9928 6.00723 17.7196 5.88545 16.1052C5.84144 15.5217 5.80802 14.9353 5.78539 14.3461L7.46967 16.0303C7.76256 16.3232 8.23744 16.3232 8.53033 16.0303C8.82322 15.7374 8.82322 15.2626 8.53033 14.9697L5.53033 11.9697Z" fill="#4B5563"/>
</svg>
