<svg width="58" height="57" viewBox="0 0 58 57" fill="none" xmlns="http://www.w3.org/2000/svg">
<path fill-rule="evenodd" clip-rule="evenodd" d="M0.5625 28.5C0.5625 12.7944 13.2944 0.0625 29 0.0625C44.7056 0.0625 57.4375 12.7944 57.4375 28.5C57.4375 44.2056 44.7056 56.9375 29 56.9375C13.2944 56.9375 0.5625 44.2056 0.5625 28.5ZM39.53 23.209C40.2323 22.2259 40.0046 20.8597 39.0215 20.1575C38.0384 19.4552 36.6722 19.683 35.97 20.666L26.5334 33.8773L21.7968 29.1407C20.9425 28.2864 19.5575 28.2864 18.7032 29.1407C17.8489 29.995 17.8489 31.38 18.7032 32.2343L25.2657 38.7968C25.7204 39.2515 26.3521 39.4831 26.9929 39.43C27.6338 39.377 28.2188 39.0447 28.5925 38.5215L39.53 23.209Z" fill="#31C48D"/>
</svg>
