<svg width="58" height="58" viewBox="0 0 58 58" fill="none" xmlns="http://www.w3.org/2000/svg">
<path fill-rule="evenodd" clip-rule="evenodd" d="M0.5625 29C0.5625 13.2944 13.2944 0.5625 29 0.5625C44.7056 0.5625 57.4375 13.2944 57.4375 29C57.4375 44.7056 44.7056 57.4375 29 57.4375C13.2944 57.4375 0.5625 44.7056 0.5625 29ZM39.53 23.709C40.2323 22.7259 40.0046 21.3597 39.0215 20.6575C38.0384 19.9552 36.6722 20.183 35.97 21.166L26.5334 34.3773L21.7968 29.6407C20.9425 28.7864 19.5575 28.7864 18.7032 29.6407C17.8489 30.495 17.8489 31.88 18.7032 32.7343L25.2657 39.2968C25.7204 39.7515 26.3521 39.9831 26.9929 39.93C27.6338 39.877 28.2188 39.5447 28.5925 39.0215L39.53 23.709Z" fill="#31C48D"/>
</svg>
