<svg width="35" height="36" viewBox="0 0 35 36" fill="none" xmlns="http://www.w3.org/2000/svg">
<path d="M20.0217 5.30684L22.5884 10.4402C22.9384 11.1548 23.8717 11.8402 24.6592 11.9714L29.3113 12.7443C32.2863 13.2402 32.9863 15.3985 30.8425 17.5277L27.2258 21.1443C26.6134 21.7568 26.2779 22.9381 26.4675 23.7839L27.5029 28.261C28.3196 31.8048 26.4384 33.1756 23.3029 31.3235L18.9425 28.7423C18.155 28.2756 16.8571 28.2756 16.055 28.7423L11.6946 31.3235C8.57377 33.1756 6.67794 31.7902 7.4946 28.261L8.53002 23.7839C8.7196 22.9381 8.38419 21.7568 7.77169 21.1443L4.15502 17.5277C2.02585 15.3985 2.71127 13.2402 5.68627 12.7443L10.3384 11.9714C11.1113 11.8402 12.0446 11.1548 12.3946 10.4402L14.9613 5.30684C16.3613 2.52142 18.6363 2.52142 20.0217 5.30684Z" stroke="#4B5563" stroke-width="1.25" stroke-linecap="round" stroke-linejoin="round"/>
</svg>
