<svg width="36" height="35" viewBox="0 0 36 35" fill="none" xmlns="http://www.w3.org/2000/svg">
<path d="M32.2188 9.84375V25.1562C32.2188 26.9684 30.7497 28.4375 28.9375 28.4375H7.0625C5.25032 28.4375 3.78125 26.9684 3.78125 25.1562V9.84375M32.2188 9.84375C32.2188 8.03157 30.7497 6.5625 28.9375 6.5625H7.0625C5.25032 6.5625 3.78125 8.03157 3.78125 9.84375M32.2188 9.84375V10.1977C32.2188 11.3372 31.6276 12.395 30.6572 12.9922L19.7197 19.723C18.6651 20.372 17.3349 20.372 16.2803 19.723L5.34281 12.9922C4.37238 12.395 3.78125 11.3372 3.78125 10.1977V9.84375" stroke="#AFAFAF" stroke-width="1.5" stroke-linecap="round" stroke-linejoin="round"/>
</svg>
