<svg width="24" height="24" viewBox="0 0 24 24" fill="none" xmlns="http://www.w3.org/2000/svg">
<path d="M13.846 3.54675L15.5862 7.02714C15.8234 7.51162 16.4562 7.97633 16.9902 8.06532L20.1443 8.58935C22.1613 8.92553 22.6359 10.3889 21.1825 11.8324L18.7304 14.2845C18.3151 14.6998 18.0877 15.5007 18.2162 16.0742L18.9182 19.1096C19.4719 21.5123 18.1964 22.4417 16.0706 21.186L13.1143 19.4359C12.5804 19.1195 11.7004 19.1195 11.1566 19.4359L8.20022 21.186C6.0843 22.4417 4.79893 21.5024 5.35263 19.1096L6.05464 16.0742C6.18318 15.5007 5.95577 14.6998 5.54049 14.2845L3.0884 11.8324C1.64483 10.3889 2.10954 8.92553 4.12659 8.58935L7.28068 8.06532C7.80472 7.97633 8.43752 7.51162 8.67482 7.02714L10.415 3.54675C11.3642 1.65824 12.9066 1.65824 13.846 3.54675Z" fill="#FCBA42" stroke="#FCBA42" stroke-width="1.48312" stroke-linecap="round" stroke-linejoin="round"/>
</svg>
