<svg width="30" height="30" viewBox="0 0 30 30" fill="none" xmlns="http://www.w3.org/2000/svg">
<path d="M14.5562 26.1383L14.548 26.1339L14.5197 26.1186C14.4956 26.1055 14.4611 26.0866 14.417 26.0619C14.3286 26.0127 14.2015 25.9405 14.0412 25.8462C13.7206 25.6576 13.2665 25.3799 12.7232 25.0187C11.6384 24.2976 10.189 23.2376 8.73575 21.8829C5.85976 19.2019 2.8125 15.2189 2.8125 10.3125C2.8125 6.65243 5.892 3.75 9.60938 3.75C11.7955 3.75 13.7529 4.74886 15 6.3145C16.2471 4.74886 18.2045 3.75 20.3906 3.75C24.108 3.75 27.1875 6.65243 27.1875 10.3125C27.1875 15.2189 24.1402 19.2019 21.2643 21.8829C19.811 23.2376 18.3616 24.2976 17.2768 25.0187C16.7335 25.3799 16.2794 25.6576 15.9588 25.8462C15.7985 25.9405 15.6714 26.0127 15.583 26.0619C15.5389 26.0866 15.5044 26.1055 15.4803 26.1186L15.452 26.1339L15.4438 26.1383L15.4403 26.1402C15.1654 26.2862 14.8346 26.2862 14.5597 26.1402L14.5562 26.1383Z" fill="#F05252"/>
</svg>
