<svg width="30" height="31" viewBox="0 0 30 31" fill="none" xmlns="http://www.w3.org/2000/svg">
<path d="M20.4688 5.65625C22.885 5.65625 24.8438 7.615 24.8438 10.0312M29.2188 10.0312C29.2188 14.8637 25.3012 18.7812 20.4688 18.7812C19.9572 18.7812 19.456 18.7374 18.9686 18.6531C18.1475 18.5113 17.2779 18.6908 16.6888 19.28L12.8125 23.1562H9.53125V26.4375H6.25V29.7188H0.78125V25.6091C0.78125 24.7389 1.12695 23.9043 1.74231 23.2889L11.22 13.8112C11.8092 13.2221 11.9887 12.3525 11.8469 11.5314C11.7626 11.044 11.7188 10.5428 11.7188 10.0312C11.7188 5.19876 15.6363 1.28125 20.4688 1.28125C25.3012 1.28125 29.2188 5.19876 29.2188 10.0312Z" stroke="#AFAFAF" stroke-width="1.5" stroke-linecap="round" stroke-linejoin="round"/>
</svg>
