<svg width="25" height="16" viewBox="0 0 25 16" fill="none" xmlns="http://www.w3.org/2000/svg">
<path d="M17.2217 0.5C21.2414 0.500207 24.5 3.85799 24.5 8C24.5 12.142 21.2414 15.4998 17.2217 15.5C15.4193 15.5 13.7712 14.8231 12.5 13.7051C11.2288 14.8231 9.58068 15.5 7.77832 15.5C3.75858 15.4998 0.5 12.142 0.5 8C0.5 3.85799 3.75858 0.500205 7.77832 0.5C9.58045 0.5 11.2288 1.17614 12.5 2.29395C13.7712 1.17614 15.4196 0.5 17.2217 0.5Z" fill="#ED0006"/>
<path d="M17.2217 0.5C21.2414 0.500208 24.5 3.85799 24.5 8C24.5 12.142 21.2414 15.4998 17.2217 15.5C15.4193 15.5 13.7712 14.8231 12.5 13.7051C14.0641 12.3295 15.0576 10.285 15.0576 8C15.0576 5.71479 14.0644 3.66958 12.5 2.29395C13.7712 1.17614 15.4196 0.5 17.2217 0.5Z" fill="#F9A000"/>
<path d="M12.5 2.29297C14.0648 3.6686 15.0576 5.71443 15.0576 8C15.0575 10.2851 14.0643 12.3295 12.5 13.7051C10.9361 12.3295 9.94344 10.2847 9.94336 8C9.94336 5.71482 10.9357 3.6686 12.5 2.29297Z" fill="#FF5E00"/>
</svg>
