<svg width="18" height="16" viewBox="0 0 18 16" fill="none" xmlns="http://www.w3.org/2000/svg">
<path d="M17.3648 7.74081C17.3573 6.8611 16.1618 6.222 14.7257 6.222H11.6956C11.2746 6.222 11.1167 6.15433 10.8685 5.86861L5.81586 0.357276C5.65797 0.176823 5.46248 0.0865969 5.23691 0.0865969H4.36472C4.16923 0.0865969 4.05645 0.259531 4.15419 0.470059L6.75572 6.222L2.93613 6.65809L1.57522 4.16183C1.47747 3.97385 1.31206 3.89115 1.06394 3.89115H0.740624C0.545133 3.89115 0.417312 4.01897 0.417312 4.21446L0.417312 11.2672C0.417312 11.4626 0.545133 11.583 0.740624 11.583H1.06394C1.31206 11.583 1.47747 11.5002 1.57522 11.3198L2.93613 8.82353L6.75572 9.25962L4.15419 15.0116C4.05645 15.2146 4.16923 15.395 4.36472 15.395H5.23691C5.46248 15.395 5.65797 15.2973 5.81586 15.1243L10.8685 9.60549C11.1167 9.32729 11.2746 9.25962 11.6956 9.25962H14.7257C16.1618 9.25962 17.3573 8.613 17.3648 7.74081Z" fill="#111928"/>
</svg>
