<svg width="21" height="20" viewBox="0 0 21 20" fill="none" xmlns="http://www.w3.org/2000/svg">
<path d="M13.6241 5C13.6241 6.72589 12.2249 8.125 10.4991 8.125C8.77316 8.125 7.37405 6.72589 7.37405 5C7.37405 3.27411 8.77316 1.875 10.4991 1.875C12.2249 1.875 13.6241 3.27411 13.6241 5Z" fill="white"/>
<path d="M4.25 16.7652C4.30859 13.3641 7.08395 10.625 10.4991 10.625C13.9142 10.625 16.6897 13.3642 16.7481 16.7654C14.8458 17.6383 12.7294 18.125 10.4993 18.125C8.26905 18.125 6.15247 17.6383 4.25 16.7652Z" fill="white"/>
<path d="M13.6241 5C13.6241 6.72589 12.2249 8.125 10.4991 8.125C8.77316 8.125 7.37405 6.72589 7.37405 5C7.37405 3.27411 8.77316 1.875 10.4991 1.875C12.2249 1.875 13.6241 3.27411 13.6241 5Z" stroke="#AFAFAF" stroke-width="1.5" stroke-linecap="round" stroke-linejoin="round"/>
<path d="M4.25 16.7652C4.30859 13.3641 7.08395 10.625 10.4991 10.625C13.9142 10.625 16.6897 13.3642 16.7481 16.7654C14.8458 17.6383 12.7294 18.125 10.4993 18.125C8.26905 18.125 6.15247 17.6383 4.25 16.7652Z" stroke="#AFAFAF" stroke-width="1.5" stroke-linecap="round" stroke-linejoin="round"/>
</svg>
